<svg width="50" height="50" viewBox="0 0 50 50" fill="none" xmlns="http://www.w3.org/2000/svg">
<g clip-path="url(#clip0_9_18)">
<circle cx="25" cy="25" r="24" stroke="#FFBC57" stroke-width="2"/>
<path d="M29.9337 19.8393C29.8431 19.6212 29.6697 19.4478 29.4515 19.3572C29.3442 19.3114 29.2289 19.2872 29.1123 19.2858H20.1837C19.9469 19.2858 19.7198 19.3798 19.5523 19.5473C19.3849 19.7147 19.2908 19.9418 19.2908 20.1786C19.2908 20.4154 19.3849 20.6425 19.5523 20.81C19.7198 20.9774 19.9469 21.0715 20.1837 21.0715H26.9605L19.5498 28.4733C19.4661 28.5563 19.3996 28.655 19.3543 28.7638C19.309 28.8726 19.2856 28.9893 19.2856 29.1072C19.2856 29.2251 19.309 29.3418 19.3543 29.4506C19.3996 29.5594 19.4661 29.6581 19.5498 29.7411C19.6328 29.8248 19.7315 29.8912 19.8403 29.9366C19.9491 29.9819 20.0658 30.0052 20.1837 30.0052C20.3015 30.0052 20.4182 29.9819 20.5271 29.9366C20.6359 29.8912 20.7346 29.8248 20.8176 29.7411L28.2194 22.3304V29.1072C28.2194 29.344 28.3135 29.5711 28.4809 29.7385C28.6483 29.906 28.8754 30.0001 29.1123 30.0001C29.3491 30.0001 29.5762 29.906 29.7436 29.7385C29.911 29.5711 30.0051 29.344 30.0051 29.1072V20.1786C30.0037 20.0619 29.9794 19.9467 29.9337 19.8393Z" fill="#FFBC57"/>
</g>
<defs>
<clipPath id="clip0_9_18">
<rect width="50" height="50" fill="white"/>
</clipPath>
</defs>
</svg>
